<?xml version="1.0" standalone="no"?>
<!DOCTYPE svg PUBLIC "-//W3C//DTD SVG 20010904//EN"
 "http://www.w3.org/TR/2001/REC-SVG-20010904/DTD/svg10.dtd">
<svg version="1.0" xmlns="http://www.w3.org/2000/svg"
 width="512.000000pt" height="512.000000pt" viewBox="0 0 512.000000 512.000000"
 preserveAspectRatio="xMidYMid meet">

<g transform="translate(0.000000,512.000000) scale(0.100000,-0.100000)"
fill="#000000" stroke="none">
<path d="M2321 5109 c-307 -27 -635 -124 -931 -274 -871 -443 -1418 -1368
-1387 -2345 13 -389 97 -726 268 -1069 331 -667 931 -1152 1657 -1340 509
-132 1067 -98 1560 94 349 137 639 330 907 606 205 210 340 404 465 663 119
246 190 474 232 741 31 200 31 550 0 750 -43 273 -114 500 -237 750 -123 251
-262 448 -459 652 -210 218 -417 370 -691 509 -431 217 -898 306 -1384 263z
m402 -1073 c104 -20 217 -67 312 -131 434 -290 504 -901 148 -1286 -71 -76
-147 -132 -258 -192 -128 -68 -155 -112 -155 -262 0 -90 -19 -143 -66 -187
-106 -99 -268 -67 -336 66 -18 35 -20 54 -16 180 5 167 28 248 104 359 64 93
141 158 258 219 120 61 185 122 227 212 59 127 59 252 -3 376 -59 121 -175
207 -312 231 -179 31 -370 -70 -448 -237 -22 -46 -35 -95 -44 -166 -14 -112
-33 -151 -98 -196 -35 -24 -49 -27 -116 -27 -67 0 -81 3 -116 27 -21 15 -50
44 -64 65 -23 34 -25 45 -24 157 0 109 4 130 33 218 99 292 339 508 636 571
91 20 243 21 338 3z m-49 -2576 c20 -14 49 -43 64 -64 24 -35 27 -49 27 -116
0 -67 -3 -81 -27 -116 -15 -21 -44 -50 -65 -64 -31 -21 -48 -25 -113 -25 -65
0 -82 4 -113 25 -81 55 -118 161 -88 253 14 41 72 104 115 123 50 23 155 14
200 -16z"/>
</g>
</svg>
