<?xml version="1.0" standalone="no"?>
<!DOCTYPE svg PUBLIC "-//W3C//DTD SVG 20010904//EN"
 "http://www.w3.org/TR/2001/REC-SVG-20010904/DTD/svg10.dtd">
<svg version="1.0" xmlns="http://www.w3.org/2000/svg"
 width="500.000000pt" height="215.000000pt" viewBox="0 0 500.000000 215.000000"
 preserveAspectRatio="xMidYMid meet">

<g transform="translate(0.000000,215.000000) scale(0.100000,-0.100000)"
fill="#000000" stroke="none">
<path d="M850 1264 c-112 -22 -264 -99 -341 -174 -97 -95 -102 -170 -14 -228
23 -15 61 -34 84 -42 123 -40 112 -114 -26 -182 -51 -25 -79 -31 -152 -36
-100 -5 -194 9 -253 39 -48 25 -48 9 -1 -42 58 -60 131 -82 258 -77 158 7 266
57 308 141 15 31 17 43 8 70 -16 47 -43 70 -139 117 -95 46 -103 65 -52 123
39 45 189 151 265 187 65 31 145 49 145 33 0 -5 -23 -29 -51 -53 -95 -80 -149
-193 -120 -249 14 -24 31 -28 31 -6 0 31 39 91 96 150 132 135 145 162 101
204 -24 22 -96 34 -147 25z"/>
<path d="M2430 1151 c-14 -5 -40 -16 -58 -25 -39 -20 -44 -40 -6 -26 23 9 25
8 19 -12 -15 -50 -209 -323 -264 -372 -11 -11 -21 -24 -21 -29 0 -6 11 0 24
12 l24 23 -13 -39 c-27 -74 -15 -115 38 -132 35 -12 71 -5 126 23 35 19 184
156 177 164 -3 2 -42 -25 -88 -62 -84 -67 -155 -103 -183 -93 -54 21 50 200
245 422 70 80 87 111 76 140 -6 16 -53 19 -96 6z"/>
<path d="M3778 1133 c-32 -14 -58 -30 -58 -35 0 -5 9 -4 19 2 26 14 31 13 31
-6 0 -36 -211 -333 -254 -356 -13 -7 -50 -35 -82 -61 -62 -51 -130 -90 -176
-101 -41 -10 -72 25 -65 72 13 77 108 172 174 172 28 0 33 -4 33 -23 0 -37
-45 -69 -130 -93 -40 -11 -42 -12 -14 -13 77 -2 184 67 184 119 0 30 -39 50
-96 50 -62 0 -160 -46 -201 -94 -34 -39 -114 -104 -167 -136 l-39 -23 16 24
c8 13 29 65 46 114 18 50 40 102 51 116 23 32 18 39 -30 39 -47 0 -113 -42
-210 -133 -41 -39 -76 -75 -78 -79 -10 -23 24 -2 85 53 68 61 178 139 196 139
5 0 -9 -20 -31 -44 -22 -24 -48 -59 -58 -77 -35 -70 -96 -149 -124 -164 -41
-21 -60 -19 -92 12 -41 39 -34 7 7 -34 35 -35 37 -36 103 -31 77 6 130 29 215
95 l57 44 0 -41 c0 -102 127 -130 255 -55 22 12 61 42 88 65 26 23 47 39 47
36 0 -4 11 1 25 10 l26 17 -11 -27 c-16 -44 -12 -101 8 -119 25 -23 94 -22
141 3 21 10 64 42 95 71 l56 51 0 -44 c0 -54 19 -83 66 -98 70 -23 164 10 268
95 l55 44 3 -51 c4 -69 35 -93 116 -93 65 1 127 30 207 96 64 53 73 51 67 -11
-8 -90 50 -121 142 -76 51 25 216 168 206 179 -3 3 -45 -28 -93 -68 -127 -105
-177 -121 -177 -54 0 38 53 140 96 186 35 37 71 42 118 18 16 -9 31 -13 34
-11 12 12 -11 38 -45 53 -21 8 -40 17 -42 19 -2 2 28 37 67 78 40 41 72 79 72
86 0 8 -13 10 -42 5 -73 -11 -77 -14 -134 -96 -36 -50 -62 -79 -74 -79 -11 0
-31 -11 -47 -24 -27 -23 -27 -25 -10 -43 16 -19 16 -21 -6 -41 -13 -12 -28
-22 -33 -22 -6 0 -34 -20 -63 -45 -117 -100 -197 -139 -240 -116 -66 36 22
200 132 246 48 20 61 12 52 -31 -4 -26 -2 -34 8 -34 8 0 18 7 21 16 22 58 -17
89 -103 81 -76 -6 -108 -24 -200 -111 -142 -132 -251 -191 -298 -161 -75 49
49 235 157 235 25 0 30 -4 30 -24 0 -37 -43 -66 -140 -94 l-35 -10 35 -1 c40
-1 127 36 151 65 29 34 32 61 8 85 -19 19 -29 21 -88 17 -84 -6 -119 -25 -206
-108 -135 -129 -224 -184 -270 -166 -52 20 54 207 217 385 92 100 125 155 107
177 -17 21 -67 17 -131 -13z"/>
<path d="M1369 861 c-41 -13 -70 -31 -118 -75 -25 -22 -53 -45 -62 -51 -9 -5
-43 -32 -75 -58 -62 -51 -130 -90 -176 -101 -41 -10 -72 25 -65 72 13 77 108
172 174 172 28 0 33 -4 33 -23 0 -37 -45 -69 -130 -93 -40 -11 -42 -12 -14
-13 77 -2 184 67 184 119 0 52 -108 67 -195 26 -68 -31 -109 -68 -134 -119
-48 -98 -4 -177 99 -177 48 0 121 32 185 80 88 67 93 68 88 16 -3 -24 0 -53 6
-64 16 -31 71 -38 129 -17 26 9 65 20 87 24 52 9 120 44 170 86 58 50 38 51
-28 2 -31 -23 -71 -48 -88 -54 -30 -12 -30 -11 14 36 77 82 86 163 24 201 -33
21 -64 24 -108 11z m99 -61 c25 -24 26 -26 11 -68 -9 -27 -14 -30 -30 -22 -28
16 -65 2 -99 -37 -22 -24 -30 -43 -28 -62 3 -24 0 -26 -39 -29 -34 -3 -42 0
-48 17 -25 79 96 214 196 220 8 1 25 -8 37 -19z"/>
<path d="M1739 842 c-40 -27 -142 -132 -136 -139 4 -3 32 18 64 47 31 29 67
59 80 67 45 30 44 6 -1 -47 -81 -95 -105 -169 -66 -205 32 -29 81 -13 150 52
50 46 59 51 50 29 -16 -44 -12 -101 8 -119 24 -22 31 -21 25 2 -7 27 37 108
112 205 67 88 68 95 16 111 -20 6 -32 -2 -80 -56 -99 -111 -177 -189 -189
-189 -20 0 -13 21 22 70 65 90 83 149 54 178 -18 18 -79 14 -109 -6z"/>
</g>
</svg>
