<?xml version="1.0" standalone="no"?>
<!DOCTYPE svg PUBLIC "-//W3C//DTD SVG 20010904//EN"
 "http://www.w3.org/TR/2001/REC-SVG-20010904/DTD/svg10.dtd">
<svg version="1.0" xmlns="http://www.w3.org/2000/svg"
 width="512.000000pt" height="512.000000pt" viewBox="0 0 512.000000 512.000000"
 preserveAspectRatio="xMidYMid meet">

<g transform="translate(0.000000,512.000000) scale(0.100000,-0.100000)"
fill="#000000" stroke="none">
<path d="M230 4291 c-87 -27 -164 -94 -202 -176 -22 -48 -23 -62 -26 -342 l-3
-293 2561 0 2561 0 -3 293 c-3 280 -4 294 -26 342 -29 63 -83 119 -147 153
l-50 27 -2320 2 c-1276 1 -2331 -2 -2345 -6z"/>
<path d="M2 1963 l3 -908 23 -50 c29 -63 83 -119 147 -153 l50 -27 2335 0
2335 0 50 27 c64 34 118 90 147 153 l23 50 3 908 2 907 -2560 0 -2560 0 2
-907z m2829 259 c26 -24 32 -36 32 -72 0 -36 -6 -48 -32 -72 l-31 -28 -950 0
c-714 0 -956 3 -975 12 -66 30 -72 121 -11 170 20 16 86 18 978 18 l958 0 31
-28z m-837 -393 c33 -16 58 -68 50 -108 -4 -17 -20 -43 -36 -56 l-30 -25 -538
0 c-397 0 -546 3 -565 12 -66 30 -72 121 -11 170 19 16 65 18 563 18 384 0
549 -3 567 -11z"/>
</g>
</svg>
