<?xml version="1.0" standalone="no"?>
<!DOCTYPE svg PUBLIC "-//W3C//DTD SVG 20010904//EN"
 "http://www.w3.org/TR/2001/REC-SVG-20010904/DTD/svg10.dtd">
<svg version="1.0" xmlns="http://www.w3.org/2000/svg"
 width="512.000000pt" height="512.000000pt" viewBox="0 0 512.000000 512.000000"
 preserveAspectRatio="xMidYMid meet">

<g transform="translate(0.000000,512.000000) scale(0.100000,-0.100000)"
fill="#000000" stroke="none">
<path d="M1540 4550 c-313 -31 -582 -155 -806 -372 -206 -200 -331 -429 -390
-713 -28 -138 -26 -396 4 -534 42 -187 105 -332 215 -496 51 -76 199 -228 926
-956 827 -828 869 -868 926 -890 84 -32 206 -32 290 0 57 22 99 63 878 840
450 449 849 852 886 896 159 186 260 395 308 635 24 120 24 385 0 500 -59 274
-169 486 -351 678 -248 259 -552 399 -911 419 -312 17 -651 -90 -886 -279 -33
-27 -62 -48 -67 -48 -4 0 -43 27 -87 60 -258 191 -615 291 -935 260z m190
-652 c60 -31 90 -77 90 -141 0 -55 -24 -105 -66 -132 -14 -9 -65 -22 -114 -29
-48 -8 -112 -25 -142 -38 -113 -52 -202 -180 -214 -308 -8 -92 -21 -125 -59
-159 -65 -57 -155 -53 -216 8 -47 47 -56 89 -42 202 39 310 294 569 598 609
99 13 119 11 165 -12z"/>
</g>
</svg>
