<?xml version="1.0" standalone="no"?>
<!DOCTYPE svg PUBLIC "-//W3C//DTD SVG 20010904//EN"
 "http://www.w3.org/TR/2001/REC-SVG-20010904/DTD/svg10.dtd">
<svg version="1.0" xmlns="http://www.w3.org/2000/svg"
 width="512.000000pt" height="512.000000pt" viewBox="0 0 512.000000 512.000000"
 preserveAspectRatio="xMidYMid meet">

<g transform="translate(0.000000,512.000000) scale(0.100000,-0.100000)"
fill="#000000" stroke="none">
<path d="M1636 4359 c-509 -191 -893 -341 -912 -355 -18 -14 -43 -47 -56 -72
-56 -116 -26 -719 58 -1140 152 -767 487 -1399 975 -1841 201 -183 388 -311
646 -443 140 -72 157 -78 212 -78 54 0 73 7 198 69 738 371 1239 972 1514
1820 136 421 202 836 203 1296 1 291 -2 310 -62 372 -35 35 -100 61 -912 367
-675 254 -888 330 -930 333 -52 3 -108 -17 -934 -328z m1862 -964 c108 -46
159 -184 106 -287 -19 -37 -935 -1003 -984 -1038 -46 -32 -112 -44 -172 -30
-51 12 -63 23 -296 254 -134 132 -252 255 -263 273 -11 17 -22 54 -26 82 -16
135 112 256 244 231 62 -11 81 -26 238 -181 l151 -150 393 411 c222 232 408
419 429 430 46 24 129 26 180 5z"/>
</g>
</svg>
