<?xml version="1.0" standalone="no"?>
<!DOCTYPE svg PUBLIC "-//W3C//DTD SVG 20010904//EN"
 "http://www.w3.org/TR/2001/REC-SVG-20010904/DTD/svg10.dtd">
<svg version="1.0" xmlns="http://www.w3.org/2000/svg"
 width="512.000000pt" height="512.000000pt" viewBox="0 0 512.000000 512.000000"
 preserveAspectRatio="xMidYMid meet">

<g transform="translate(0.000000,512.000000) scale(0.100000,-0.100000)"
fill="#000000" stroke="none">
<path d="M233 4280 c-88 -18 -159 -73 -204 -160 l-24 -45 -3 -807 -2 -808
1610 0 1610 0 -2 803 c-3 791 -3 803 -24 848 -31 66 -78 114 -142 146 l-57 28
-1360 2 c-748 0 -1379 -3 -1402 -7z"/>
<path d="M3420 3281 l0 -341 551 0 c437 0 550 3 546 13 -21 54 -282 540 -306
569 -17 20 -57 49 -88 65 l-58 28 -322 3 -323 4 0 -341z"/>
<path d="M3420 2125 l0 -625 119 0 118 0 39 66 c82 140 256 265 411 295 86 16
233 7 310 -19 140 -49 274 -158 343 -279 l35 -62 116 -1 c133 0 174 10 194 51
22 42 22 936 0 978 -12 24 -51 45 -232 125 l-218 96 -617 0 -618 0 0 -625z"/>
<path d="M0 1920 c0 -377 2 -388 61 -409 18 -6 62 -11 100 -11 l68 0 32 58
c49 87 169 200 259 244 112 55 186 71 305 66 212 -9 401 -123 509 -307 l32
-56 927 -3 927 -2 0 380 0 380 -1610 0 -1610 0 0 -340z"/>
<path d="M669 1652 c-143 -54 -238 -157 -275 -297 -69 -256 131 -516 396 -517
129 -1 230 42 315 133 193 206 126 541 -132 662 -59 27 -80 32 -163 34 -71 2
-107 -2 -141 -15z"/>
<path d="M4094 1650 c-174 -61 -284 -215 -284 -394 0 -121 38 -213 122 -297
140 -140 354 -162 523 -54 221 142 253 456 66 643 -85 85 -177 122 -301 121
-45 0 -95 -8 -126 -19z"/>
</g>
</svg>
