<svg width="24" height="24" viewBox="0 0 24 24" fill="none" xmlns="http://www.w3.org/2000/svg">
<g id="twitter" clip-path="url(#clip0_2765_49351)">
<path id="Vector" d="M8.30019 21.9C5.70019 21.9 3.00019 21.2 0.60019 19.8C0.20019 19.6 0.000190429 19.1 0.10019 18.7C0.20019 18.3 0.60019 18 1.00019 18C2.70019 18.1 4.40019 17.7 5.90019 17C2.20019 14.7 1.20019 11.5 1.10019 9.00001C1.00019 6.10001 2.00019 3.70001 2.10019 3.60001C2.20019 3.30001 2.50019 3.00001 2.90019 3.00001C3.30019 3.00001 3.60019 3.10001 3.80019 3.40001C5.50019 5.80001 8.10019 7.30001 11.0002 7.50001C11.0002 5.90001 11.7002 4.40001 12.9002 3.30001C15.0002 1.50001 18.1002 1.50001 20.2002 3.30001C21.0002 3.00001 21.8002 2.60001 22.5002 2.10001C22.8002 1.90001 23.3002 1.90001 23.6002 2.10001C23.9002 2.30001 24.1002 2.80001 24.0002 3.20001C23.7002 4.60001 23.0002 5.90001 22.0002 7.00001C22.0002 7.20001 22.0002 7.30001 22.0002 7.50001C22.0002 13 19.6002 17.6 15.3002 20C13.2002 21.3 10.8002 21.9 8.30019 21.9ZM5.00019 19.5C8.30019 20.3 11.6002 19.9 14.4002 18.3C18.0002 16.2 20.1002 12.2 20.1002 7.50001C20.1002 7.30001 20.1002 7.10001 20.0002 6.90001C19.9002 6.60001 20.0002 6.20001 20.3002 6.00001C20.5002 5.80001 20.7002 5.50001 20.9002 5.30001C20.7002 5.40001 20.4002 5.50001 20.2002 5.50001C19.8002 5.60001 19.4002 5.50001 19.2002 5.20001C17.9002 3.80001 15.7002 3.60001 14.3002 4.90001C13.4002 5.50001 13.0002 6.50001 13.0002 7.50001V8.50001C13.0002 9.00001 12.6002 9.50001 12.0002 9.50001C8.70019 9.60001 5.60019 8.30001 3.40019 6.00001C2.80019 8.60001 2.60019 13.5 8.40019 16C8.70019 16.2 9.00019 16.5 9.00019 16.9C9.00019 17.3 8.90019 17.6 8.60019 17.8C7.40019 18.6 6.20019 19.2 5.00019 19.5Z" fill="#F8F9FA"/>
</g>
<defs>
<clipPath id="clip0_2765_49351">
<rect width="24" height="24" fill="white"/>
</clipPath>
</defs>
</svg>
