<?xml version="1.0" standalone="no"?>
<!DOCTYPE svg PUBLIC "-//W3C//DTD SVG 20010904//EN"
 "http://www.w3.org/TR/2001/REC-SVG-20010904/DTD/svg10.dtd">
<svg version="1.0" xmlns="http://www.w3.org/2000/svg"
 width="512.000000pt" height="512.000000pt" viewBox="0 0 512.000000 512.000000"
 preserveAspectRatio="xMidYMid meet">

<g transform="translate(0.000000,512.000000) scale(0.100000,-0.100000)"
fill="#000000" stroke="none">
<path d="M2267 4614 c-678 -98 -1268 -527 -1568 -1139 -146 -298 -211 -579
-210 -915 0 -347 69 -640 222 -940 306 -602 877 -1012 1554 -1116 149 -23 442
-23 590 0 680 105 1247 512 1554 1116 153 300 223 598 223 940 0 336 -63 609
-207 905 -310 638 -900 1059 -1618 1155 -109 14 -423 11 -540 -6z m443 -308
c163 -9 352 -54 526 -127 782 -326 1222 -1172 1038 -1998 -248 -1113 -1467
-1698 -2489 -1196 -788 387 -1167 1299 -889 2134 224 669 847 1149 1544 1190
63 4 129 6 145 4 17 -1 73 -4 125 -7z"/>
</g>
</svg>
